HIERARCHY
ROOT Hip
{
    OFFSET 0.0 0.0 0.0
    CHANNELS 6 Xposition Yposition Zposition Zrotation Xrotation Yrotation
    JOINT RightHip
    {
        OFFSET -9.770221710205078 0.0 0.0
        CHANNELS 3 Zrotation Xrotation Yrotation
        JOINT RightKnee
        {
            OFFSET 0.0 0.0 -39.052398681640625
            CHANNELS 3 Zrotation Xrotation Yrotation
            JOINT RightAnkle
            {
                OFFSET 0.0 0.0 -38.532501220703125
                CHANNELS 3 Zrotation Xrotation Yrotation
                End Site
                {
                    OFFSET 0.0 -15.413002014160156 0.0
                }
            }
        }
    }
    JOINT LeftHip
    {
        OFFSET 9.770221710205078 0.0 0.0
        CHANNELS 3 Zrotation Xrotation Yrotation
        JOINT LeftKnee
        {
            OFFSET 0.0 0.0 -39.052398681640625
            CHANNELS 3 Zrotation Xrotation Yrotation
            JOINT LeftAnkle
            {
                OFFSET 0.0 0.0 -38.532501220703125
                CHANNELS 3 Zrotation Xrotation Yrotation
                End Site
                {
                    OFFSET 0.0 -15.413002014160156 0.0
                }
            }
        }
    }
    JOINT Spine
    {
        OFFSET 0.0 0.0 23.71104621887207
        CHANNELS 3 Zrotation Xrotation Yrotation
        JOINT Thorax
        {
            OFFSET 0.0 0.0 25.15134620666504
            CHANNELS 3 Zrotation Xrotation Yrotation
            JOINT Neck
            {
                OFFSET 0.0 0.0 13.506202697753906
                CHANNELS 3 Zrotation Xrotation Yrotation
                End Site
                {
                    OFFSET 0.0 0.0 5.402481555938721
                }
            }
            JOINT LeftShoulder
            {
                OFFSET 12.759206771850586 0.0 0.0
                CHANNELS 3 Zrotation Xrotation Yrotation
                JOINT LeftElbow
                {
                    OFFSET 28.929279327392578 0.0 0.0
                    CHANNELS 3 Zrotation Xrotation Yrotation
                    JOINT LeftWrist
                    {
                        OFFSET 23.678314208984375 0.0 0.0
                        CHANNELS 3 Zrotation Xrotation Yrotation
                        End Site
                        {
                            OFFSET 9.47132682800293 0.0 0.0
                        }
                    }
                }
            }
            JOINT RightShoulder
            {
                OFFSET -12.759206771850586 0.0 0.0
                CHANNELS 3 Zrotation Xrotation Yrotation
                JOINT RightElbow
                {
                    OFFSET -28.929279327392578 0.0 0.0
                    CHANNELS 3 Zrotation Xrotation Yrotation
                    JOINT RightWrist
                    {
                        OFFSET -23.678314208984375 0.0 0.0
                        CHANNELS 3 Zrotation Xrotation Yrotation
                        End Site
                        {
                            OFFSET -9.47132682800293 0.0 0.0
                        }
                    }
                }
            }
        }
    }
}
MOTION
Frames: 7
Frame Time: 0.03333333333333333
-8.207393693737686e-05 81.0489501953125 -0.0013192155165597796 -78.90116437889075 -38.640233729411754 -93.0506575276502 1.8696726178361311 -25.584846320757823 13.529478319248437 3.2098013675245305 19.041711891946594 -8.205117840754088 -9.54166404439055e-15 4.770832022195274e-15 6.3611093629270335e-15 1.6684217222707212 -22.993558853405823 -0.2183383367590761 -1.3629949274576985 16.846052346948916 1.2387239979074427 -6.3611093629270335e-15 1.7655625192200634e-31 -3.1805546814635168e-15 -0.4328908172635967 6.304580468365674 -0.3091082713771198 -1.7226508622441008 6.434497807456266e-07 -2.60314902411453e-06 13.785100954886566 -22.46417667258408 6.50709713217869 -60.758478684579664 -11.90395637564827 61.936816532723846 -55.559211105117406 8.266830362528566e-07 -7.56725341482265e-07 0.0 0.0 3.1805546814635176e-15 4.130644777552234 -11.148233236129718 -55.36482512323727 47.47364330132658 3.5202871875552163e-06 1.2687854604911036e-07 1.7655625192200634e-31 6.3611093629270335e-15 -3.1805546814635168e-15
-5.521596904145554e-05 81.04911804199219 -0.0013719869311898947 -77.35197923455186 -38.13542892068784 -93.04696327217493 2.2062912552952274 -27.309253412113495 14.793237822604379 3.4164153201861294 18.668091669969623 -7.62694297169305 3.1805546814635164e-15 0.0 0.0 1.9164460739098452 -24.034327820455957 0.9889361641533415 -1.104882726343023 16.524390205661312 1.196190308633514 4.4139062980501586e-32 1.5902773407317584e-15 -3.1805546814635168e-15 -0.4562248402845656 6.0774904950394255 0.1811160182216033 -2.1367138461715274 -1.7510516162435367e-06 -2.4856852375022278e-06 12.929930405972883 -23.266360594762713 7.541044808133386 -60.73058852694682 -13.512376980840608 60.39773691568018 -57.8204652874577 1.135090488381324e-06 -2.16395232169393e-06 -3.1805546814635168e-15 0.0 0.0 5.38779267857247 -12.777659281824373 -53.66638388238615 48.771427000417496 -1.0875099816774168e-06 -2.5458994858498385e-06 3.1805546814635168e-15 6.3611093629270335e-15 -1.7655625192200634e-31
-3.2956540962914005e-05 81.04935455322266 -0.0014112690696492791 -75.99376231223543 -37.04352895090827 -92.99403606582443 2.593843556296436 -30.523984537652005 15.753723017040828 4.061575731910203 20.60759986729315 -8.167321296864763 2.2069531490250793e-31 -7.951386703658792e-15 3.1805546814635168e-15 2.2217113783539997 -26.662632217867948 1.5360150367564966 -1.0703883842964075 17.372244140228926 1.204190293462557 -1.7655625192200634e-31 -6.361109362927033e-15 -3.1805546814635164e-15 -0.4850947313642659 6.27512770606934 0.49985048682098393 -2.4947072771412233 3.0510965036181274e-06 3.676911362086105e-06 14.728339367113657 -24.58247505353623 7.7282319026051445 -60.67967077850496 -16.059807195196107 58.798050196368315 -60.647508200042424 -7.271941925183565e-07 -1.8848690959283036e-06 3.1805546814635168e-15 0.0 0.0 7.051084100943801 -14.959024033762848 -52.099324014538894 50.55437917359686 1.7291828788019643e-06 5.204390416849052e-06 0.0 0.0 3.1805546814635164e-15
-7.88763354648836e-05 81.04947662353516 -0.0014683454064652324 -74.46549846423163 -35.53573437323507 -92.70885231364959 3.1216914752720326 -32.97896396379587 16.44252223423623 4.1407686699342445 20.85572016920085 -8.06261686108725 3.1805546814635168e-15 -1.5902773407317582e-15 6.3611093629270335e-15 2.63080682990791 -28.54192067386697 1.554645274491931 -1.2365706728454613 17.351850702438448 0.9211262558951044 3.1805546814635168e-15 -8.827812596100317e-32 -3.1805546814635168e-15 -0.5230075425543681 6.189292508733817 0.8566842916180192 -2.673942376628717 -1.8833657640210311e-06 -5.8894744399648495e-06 16.00396142337101 -24.719836647500685 7.690086739053926 -61.2401158123661 -16.991146493855183 56.174867171711604 -63.61288595160875 1.5764812866066956e-06 -3.694025884720823e-07 0.0 0.0 0.0 10.609032963753663 -15.953831683937775 -49.38982684037415 51.18088700749374 7.524631493880803e-07 1.0878661644833203e-06 0.0 0.0 0.0
-6.187883263919502e-05 81.04976654052734 -0.0015643846709281206 -72.37853186370202 -33.71115892201455 -91.86268343997662 3.5860546556194177 -35.17142331876001 16.915010302577688 4.103580079066119 20.708725752717868 -8.669146695313831 6.3611093629270335e-15 -1.5902773407317582e-15 3.1805546814635168e-15 3.0251515327882097 -30.60254529713923 2.0111454219419764 -1.197628813103526 16.921068828097443 -0.21056551037482366 -3.1805546814635168e-15 0.0 0.0 -0.52370175685297 5.8628070166771975 0.5030523756072487 -2.3434293457694495 -1.9814938352005547e-06 4.141479759544796e-06 17.839630493642797 -25.23955191314077 8.72929600268213 -61.7692075255956 -18.861879803454844 53.460316725319046 -65.20810181434085 4.898311210112995e-06 1.8239263596176448e-06 0.0 0.0 3.1805546814635168e-15 12.75471772922712 -18.11219915806705 -46.92218177155203 51.09411179723567 -5.379514390437094e-06 3.89513652022416e-06 0.0 0.0 3.1805546814635168e-15
3.499426384223625e-05 81.04997253417969 -0.0015682384837418795 -69.92880878175917 -32.318547136967965 -90.9327647035758 4.205738507575801 -37.56212665010794 17.682728643021758 3.9884261454896164 19.99867898651207 -8.83427875876431 3.1805546814635168e-15 -1.5902773407317584e-15 4.4139062980501586e-32 3.570358077674419 -33.02331586730503 2.6806710187372658 -1.151654001283616 16.55757883331829 -1.8357848917829132 3.1805546814635176e-15 -1.5902773407317588e-15 3.1805546814635176e-15 -0.5385922004046833 5.615437127160774 0.6923369077203433 -2.251556623711585 -5.246309696901626e-06 -1.2458594055582676e-06 18.10474061844055 -26.171727931875925 9.054722228717221 -62.21133287126337 -20.906210871674705 50.53257686670674 -68.49515956234794 -7.750418053584938e-08 6.321897587038456e-07 0.0 0.0 0.0 14.591340941691266 -21.204710494111882 -44.97111211484195 51.82289695912477 7.61153357772143e-07 -3.3934099649297365e-06 1.5902773407317584e-15 -4.4139062980501586e-32 -3.1805546814635168e-15
9.442119335290045e-05 81.05037689208984 -0.0016620364040136337 -67.1712972975496 -30.791557910995444 -89.91921242136294 5.041706338528002 -41.293922219591124 19.07399719075323 4.503171120188539 21.142349783344397 -10.710254058047965 3.1805546814635164e-15 0.0 0.0 4.2752922340486865 -36.56189819660215 3.175778764178096 -1.2684952912828773 17.582720134730387 -2.9640995996213206 3.1805546814635168e-15 -1.5902773407317584e-15 3.1805546814635168e-15 -0.5357006783240147 5.325110282938694 0.11502761287777644 -1.9149120047492632 1.408156726903652e-07 -1.7193921216659654e-06 21.432611102842973 -27.837304008695668 11.893338241210753 -62.426003235266094 -23.98432543767465 47.944788649859 -70.63452990657731 -8.725305131802047e-07 -2.1696357993140297e-08 0.0 0.0 3.1805546814635168e-15 15.509097744500421 -24.186802964673767 -43.21029300218664 52.62728622552891 1.6866626344380368e-06 9.623878620568896e-07 -1.5902773407317584e-15 -7.951386703658792e-16 -3.1805546814635168e-15
